<?xml version="1.0" standalone="no"?><svg xmlns="http://www.w3.org/2000/svg" viewBox="0 0 1320 320"><path fill="#0099ff" fill-opacity="1" d="M0,0L13.3,37.3C26.7,75,53,149,80,176C106.7,203,133,181,160,170.7C186.7,160,213,160,240,181.3C266.7,203,293,245,320,229.3C346.7,213,373,139,400,128C426.7,117,453,171,480,165.3C506.7,160,533,96,560,96C586.7,96,613,160,640,160C666.7,160,693,96,720,64C746.7,32,773,32,800,58.7C826.7,85,853,139,880,170.7C906.7,203,933,213,960,197.3C986.7,181,1013,139,1040,138.7C1066.7,139,1093,181,1120,202.7C1146.7,224,1173,224,1200,229.3C1226.7,235,1253,245,1280,245.3C1306.7,245,1333,235,1360,229.3C1386.7,224,1413,224,1427,224L1440,224L1440,320L1426.7,320C1413.3,320,1387,320,1360,320C1333.3,320,1307,320,1280,320C1253.3,320,1227,320,1200,320C1173.3,320,1147,320,1120,320C1093.3,320,1067,320,1040,320C1013.3,320,987,320,960,320C933.3,320,907,320,880,320C853.3,320,827,320,800,320C773.3,320,747,320,720,320C693.3,320,667,320,640,320C613.3,320,587,320,560,320C533.3,320,507,320,480,320C453.3,320,427,320,400,320C373.3,320,347,320,320,320C293.3,320,267,320,240,320C213.3,320,187,320,160,320C133.3,320,107,320,80,320C53.3,320,27,320,13,320L0,320Z"></path></svg>